Coordinates
version=1
nRows=60
nColumns=12
inDegrees=yes

Units are S.I. units (second, meters, Newtons, ...)
Angles are in degrees

endheader
time	SC_y	SC_z	SC_x	AC_y	AC_z	AC_x	GH_y	GH_z	GH_yy	EL_x	PS_y
       0.0              -31.64           2.92          3.734          64.96          4.223          6.576          92.35          49.21          147.0          29.09          23.53
   0.03683              -31.64          2.923          3.745          64.95          4.223          6.578          92.35          49.21          146.9           29.1          23.53
   0.07366              -31.65          2.926          3.757          64.95          4.223          6.579          92.36          49.21          146.9          29.11          23.53
    0.1105              -31.65          2.929          3.769          64.94          4.223          6.581          92.36          49.21          146.9          29.11          23.53
    0.1473              -31.65          2.933          3.783          64.94          4.223          6.583          92.36          49.21          146.8          29.12          23.53
    0.1841              -31.65          2.936          3.797          64.93          4.224          6.585          92.36          49.21          146.8          29.13          23.53
     0.221              -31.65           2.94          3.813          64.92          4.224          6.587          92.36          49.21          146.7          29.14          23.54
    0.2578              -31.65          2.944          3.829          64.92          4.224          6.589          92.36          49.21          146.7          29.15          23.54
    0.2946              -31.66          2.948          3.847          64.91          4.225          6.591          92.37          49.21          146.6          29.16          23.54
    0.3315              -31.66          2.953          3.866           64.9          4.225          6.594          92.37          49.21          146.6          29.17          23.54
    0.3683              -31.66          2.958          3.886           64.9          4.225          6.596          92.37          49.21          146.5          29.18          23.55
    0.4051              -31.66          2.964          3.908          64.89          4.226          6.599          92.37          49.22          146.4           29.2          23.55
     0.442              -31.66          2.969          3.931          64.88          4.226          6.602          92.38          49.22          146.3          29.21          23.55
    0.4788              -31.67          2.976          3.957          64.87          4.227          6.606          92.38          49.22          146.3          29.23          23.56
    0.5156              -31.67          2.983          3.984          64.86          4.227          6.609          92.38          49.22          146.2          29.24          23.56
    0.5524              -31.67           2.99          4.014          64.85          4.228          6.613          92.39          49.22          146.1          29.26          23.56
    0.5893              -31.68          2.998          4.047          64.83          4.228          6.618          92.39          49.22          146.0          29.28          23.57
    0.6261              -31.68          3.007          4.082          64.82          4.229          6.622           92.4          49.23          145.9           29.3          23.57
    0.6629              -31.68          3.016           4.12           64.8           4.23          6.628           92.4          49.23          145.7          29.32          23.58
    0.6998              -31.69          3.027          4.163          64.79           4.23          6.633          92.41          49.23          145.6          29.35          23.58
    0.7366              -31.69          3.038          4.209          64.77          4.231          6.639          92.41          49.23          145.5          29.38          23.59
    0.7734               -31.7          3.051           4.26          64.75          4.232          6.646          92.42          49.24          145.3          29.41           23.6
    0.8102               -31.7          3.065          4.316          64.73          4.233          6.654          92.42          49.24          145.1          29.44           23.6
    0.8471              -31.71          3.081          4.379           64.7          4.234          6.662          92.43          49.24          144.9          29.48          23.61
    0.8839              -31.72          3.098          4.448          64.67          4.235          6.671          92.44          49.25          144.7          29.52          23.62
    0.9207              -31.72          3.117          4.526          64.64          4.237          6.681          92.45          49.25          144.5          29.57          23.63
    0.9576              -31.73          3.139          4.613          64.61          4.238          6.693          92.46          49.26          144.2          29.62          23.64
    0.9944              -31.74          3.163           4.71          64.57           4.24          6.706          92.47          49.26          143.9          29.68          23.66
     1.031              -31.75           3.19           4.82          64.53          4.242           6.72          92.48          49.27          143.5          29.74          23.67
     1.068              -31.77          3.221          4.946          64.48          4.244          6.737           92.5          49.28          143.1          29.82          23.69
     1.105              -31.78          3.257          5.089          64.42          4.247          6.756          92.52          49.29          142.7           29.9          23.71
     1.142               -31.8          3.298          5.253          64.36           4.25          6.778          92.54           49.3          142.2           30.0          23.73
     1.179              -31.82          3.345          5.442          64.28          4.253          6.803          92.56          49.31          141.6          30.11          23.76
     1.215              -31.84          3.399          5.662           64.2          4.257          6.832          92.59          49.32          140.9          30.24          23.79
     1.252              -31.86          3.463           5.92          64.09          4.262          6.866          92.62          49.34          140.0           30.4          23.82
     1.289               -31.9          3.539          6.223          63.98          4.267          6.907          92.65          49.35          139.1          30.58          23.86
     1.326              -31.93          3.628          6.584          63.83          4.274          6.954           92.7          49.38          137.9          30.79          23.91
     1.363              -31.98          3.736          7.017          63.66          4.282          7.012          92.75           49.4          136.6          31.05          23.97
       1.4              -32.03          3.865           7.54          63.46          4.291          7.081          92.81          49.43          134.9          31.36          24.04
     1.436              -32.09          4.024          8.179          63.21          4.303          7.166          92.89          49.47          132.9          31.74          24.13
     1.473              -32.17           4.22          8.968          62.89          4.317          7.271          92.99          49.52          130.4          32.21          24.23
      1.51              -32.27          4.464          9.951          62.51          4.334          7.401          93.11          49.58          127.2           32.8          24.37
     1.547               -32.4          4.772          11.19          62.02          4.357          7.566          93.26          49.65          123.3          33.54          24.54
     1.584              -32.56          5.163          12.77           61.4          4.385          7.775          93.45          49.74          118.3          34.48          24.75
      1.62              -32.76          5.664          14.78           60.6          4.421          8.042          93.69          49.86          111.9          35.68          25.02
     1.657              -33.02          6.306          17.37          59.59          4.468          8.386          94.01          50.02          103.7          37.22          25.37
     1.694              -33.35          7.127          20.67          58.28          4.527          8.824          94.41          50.21          93.19          39.19          25.82
     1.731              -33.77          8.158          24.83          56.65          4.602          9.376          94.91          50.46           80.0          41.67          26.38
     1.768              -34.29          9.416          29.89          54.65          4.693          10.05          95.52          50.76          63.92          44.68          27.07
     1.805              -34.88          10.87          35.76          52.34          4.799          10.83          96.24          51.11          45.28          48.18          27.87
     1.841              -35.52          12.45          42.12          49.84          4.913          11.67          97.01          51.49           25.1          51.97          28.73
     1.878              -36.16          14.03          48.47          47.34          5.028          12.51          97.78          51.87          4.925          55.76          29.59
     1.915              -36.76          15.49          54.34          45.02          5.133          13.29          98.49          52.22         -13.71          59.26          30.38
     1.952              -37.27          16.74          59.41          43.03          5.225          13.97           99.1          52.52         -29.79          62.28          31.07
     1.989              -37.69          17.78          63.56          41.39          5.299          14.52          99.61          52.77         -42.98          64.75          31.63
     2.026              -38.02           18.6          66.87          40.09          5.359          14.96          100.0          52.96         -53.48          66.72          32.08
     2.062              -38.28          19.24          69.46          39.07          5.405           15.3          100.3          53.12         -61.69          68.26          32.43
     2.099              -38.49          19.74          71.47          38.28          5.442          15.57          100.6          53.24         -68.09          69.46          32.71
     2.136              -38.64          20.13          73.05          37.66           5.47          15.78          100.8          53.33         -73.09           70.4          32.92
     2.173              -38.77          20.44          74.29          37.17          5.492          15.94          100.9          53.41         -77.03          71.14          33.09
